<?xml version="1.0" encoding="utf-8"?>
<!-- Generator: Adobe Illustrator 16.0.1, SVG Export Plug-In . SVG Version: 6.00 Build 0)  -->
<!DOCTYPE svg PUBLIC "-//W3C//DTD SVG 1.1//EN" "http://www.w3.org/Graphics/SVG/1.1/DTD/svg11.dtd">
<svg version="1.1" id="Layer_1" xmlns="http://www.w3.org/2000/svg" xmlns:xlink="http://www.w3.org/1999/xlink" x="0px" y="0px"
	 width="92px" height="92px" viewBox="0 0 92 92" enable-background="new 0 0 92 92" xml:space="preserve">
<rect x="347" y="218" fill="none" width="92" height="92"/>
<path fill="none" d="M395.684,222.196c-15.699,0-28.587,12.005-29.998,27.336l-6.467,12.475c-0.617,1.192-0.276,2.661,0.803,3.46
	l5.529,4.088v13.061c0,1.289,1.045,2.334,2.333,2.334h13.173v17.792c0,1.118,1.129,1.881,2.166,1.464l26.137-10.506
	c1.305-0.524,2.166-1.797,2.166-3.204V277.96c8.576-5.311,14.291-14.803,14.291-25.632
	C425.816,235.688,412.326,222.196,395.684,222.196z M412.915,257.062c-0.962,1.355-2.198,2.591-3.72,3.748
	c-4.104,2.009-6.803-2.727-6.803-2.727l3.666,9.564c0.102,0.265,0.09,0.565-0.029,0.821c-0.12,0.255-0.338,0.441-0.596,0.51
	l-0.627,0.168c-0.7,0.188-1.43-0.154-1.783-0.83l-4.077-7.843c-2.359-0.757-3.534-2.66-3.97-5.021
	c-0.008-0.042-0.016-0.081-0.023-0.122c-0.014,0.041-0.033,0.08-0.049,0.122c-1.191,3.137-6.995,3.099-8.863,0
	c-0.438-0.725-0.66-1.615-0.558-2.669c-0.022,0-0.048-0.013-0.066,0c-6.243,4.111-12.177-4.749-6.977-12.545
	c3.505-5.255,10.248-8.932,17.626-8.932c10.693,0,19.361,7.747,19.361,17.305C415.428,251.965,414.592,254.699,412.915,257.062z"/>
<rect x="347" y="218" fill="none" width="92" height="92"/>
<path fill="none" d="M395.684,222.196c-15.699,0-28.587,12.005-29.998,27.336l-6.467,12.475c-0.617,1.192-0.276,2.661,0.803,3.46
	l5.529,4.088v13.061c0,1.289,1.045,2.334,2.333,2.334h13.173v17.792c0,1.118,1.129,1.881,2.166,1.464l26.137-10.506
	c1.305-0.524,2.166-1.797,2.166-3.204V277.96c8.576-5.311,14.291-14.803,14.291-25.632
	C425.816,235.688,412.326,222.196,395.684,222.196z M412.915,257.062c-0.962,1.355-2.198,2.591-3.72,3.748
	c-4.104,2.009-6.803-2.727-6.803-2.727l3.666,9.564c0.102,0.265,0.09,0.565-0.029,0.821c-0.12,0.255-0.338,0.441-0.596,0.51
	l-0.627,0.168c-0.7,0.188-1.43-0.154-1.783-0.83l-4.077-7.843c-2.359-0.757-3.534-2.66-3.97-5.021
	c-0.008-0.042-0.016-0.081-0.023-0.122c-0.014,0.041-0.033,0.08-0.049,0.122c-1.191,3.137-6.995,3.099-8.863,0
	c-0.438-0.725-0.66-1.615-0.558-2.669c-0.022,0-0.048-0.013-0.066,0c-6.243,4.111-12.177-4.749-6.977-12.545
	c3.505-5.255,10.248-8.932,17.626-8.932c10.693,0,19.361,7.747,19.361,17.305C415.428,251.965,414.592,254.699,412.915,257.062z"/>
<rect fill="none" width="92" height="92"/>
<path fill="#FFFFFF" d="M48.684,4.196c-15.699,0-28.587,12.005-29.999,27.336l-6.466,12.475c-0.618,1.192-0.277,2.661,0.803,3.46
	l5.528,4.088v13.061c0,1.289,1.045,2.334,2.333,2.334h13.172v17.792c0,1.118,1.129,1.881,2.166,1.464l26.137-10.506
	c1.305-0.524,2.166-1.797,2.166-3.204V59.96c8.576-5.311,14.291-14.803,14.291-25.632C78.816,17.688,65.326,4.196,48.684,4.196z
	 M65.915,39.062c-0.962,1.355-2.198,2.591-3.72,3.748c-4.104,2.009-6.803-2.727-6.803-2.727l3.666,9.564
	c0.102,0.265,0.09,0.565-0.029,0.821c-0.12,0.255-0.338,0.441-0.596,0.51l-0.627,0.168c-0.7,0.188-1.43-0.154-1.783-0.83
	l-4.077-7.843c-2.359-0.757-3.534-2.66-3.97-5.021c-0.008-0.042-0.016-0.081-0.023-0.122c-0.014,0.041-0.033,0.08-0.049,0.122
	c-1.191,3.137-6.995,3.099-8.863,0c-0.438-0.725-0.66-1.615-0.558-2.669c-0.022,0-0.048-0.013-0.066,0
	c-6.243,4.111-12.176-4.749-6.977-12.545c3.504-5.255,10.248-8.932,17.626-8.932c10.693,0,19.361,7.747,19.361,17.305
	C68.428,33.965,67.592,36.699,65.915,39.062z"/>
</svg>
