<?xml version="1.0" encoding="utf-8"?>
<!-- Generator: Adobe Illustrator 16.0.0, SVG Export Plug-In . SVG Version: 6.00 Build 0)  -->
<!DOCTYPE svg PUBLIC "-//W3C//DTD SVG 1.1//EN" "http://www.w3.org/Graphics/SVG/1.1/DTD/svg11.dtd">
<svg version="1.1" id="Layer_1" xmlns="http://www.w3.org/2000/svg" xmlns:xlink="http://www.w3.org/1999/xlink" x="0px" y="0px"
	 width="92px" height="92px" viewBox="0 0 92 92" enable-background="new 0 0 92 92" xml:space="preserve">
<rect x="347" y="218" fill="none" width="92" height="92"/>
<path fill="none" d="M395.684,222.195c-15.698,0-28.587,12.006-29.998,27.337l-6.467,12.475c-0.617,1.192-0.275,2.661,0.804,3.46
	l5.528,4.088v13.062c0,1.288,1.045,2.334,2.333,2.334h13.173v17.792c0,1.117,1.129,1.881,2.166,1.464L409.36,293.7
	c1.305-0.524,2.166-1.798,2.166-3.204V277.96c8.575-5.312,14.291-14.803,14.291-25.632
	C425.816,235.688,412.326,222.195,395.684,222.195z M412.915,257.062c-0.962,1.354-2.198,2.59-3.72,3.748
	c-4.104,2.008-6.804-2.728-6.804-2.728l3.666,9.563c0.103,0.266,0.091,0.565-0.028,0.821c-0.12,0.255-0.338,0.441-0.597,0.511
	l-0.627,0.168c-0.7,0.188-1.43-0.154-1.782-0.83l-4.077-7.844c-2.359-0.757-3.534-2.66-3.971-5.021
	c-0.008-0.042-0.016-0.081-0.022-0.122c-0.014,0.041-0.033,0.08-0.049,0.122c-1.191,3.137-6.995,3.099-8.863,0
	c-0.438-0.726-0.66-1.615-0.558-2.669c-0.022,0-0.049-0.014-0.066,0c-6.243,4.111-12.177-4.749-6.978-12.545
	c3.506-5.256,10.248-8.932,17.627-8.932c10.692,0,19.36,7.746,19.36,17.305C415.428,251.965,414.592,254.699,412.915,257.062z"/>
<rect x="347" y="218" fill="none" width="92" height="92"/>
<path fill="none" d="M395.684,222.195c-15.698,0-28.587,12.006-29.998,27.337l-6.467,12.475c-0.617,1.192-0.275,2.661,0.804,3.46
	l5.528,4.088v13.062c0,1.288,1.045,2.334,2.333,2.334h13.173v17.792c0,1.117,1.129,1.881,2.166,1.464L409.36,293.7
	c1.305-0.524,2.166-1.798,2.166-3.204V277.96c8.575-5.312,14.291-14.803,14.291-25.632
	C425.816,235.688,412.326,222.195,395.684,222.195z M412.915,257.062c-0.962,1.354-2.198,2.59-3.72,3.748
	c-4.104,2.008-6.804-2.728-6.804-2.728l3.666,9.563c0.103,0.266,0.091,0.565-0.028,0.821c-0.12,0.255-0.338,0.441-0.597,0.511
	l-0.627,0.168c-0.7,0.188-1.43-0.154-1.782-0.83l-4.077-7.844c-2.359-0.757-3.534-2.66-3.971-5.021
	c-0.008-0.042-0.016-0.081-0.022-0.122c-0.014,0.041-0.033,0.08-0.049,0.122c-1.191,3.137-6.995,3.099-8.863,0
	c-0.438-0.726-0.66-1.615-0.558-2.669c-0.022,0-0.049-0.014-0.066,0c-6.243,4.111-12.177-4.749-6.978-12.545
	c3.506-5.256,10.248-8.932,17.627-8.932c10.692,0,19.36,7.746,19.36,17.305C415.428,251.965,414.592,254.699,412.915,257.062z"/>
<path fill="#FFFFFF" d="M11.246,6.011h61.047c2.676,0,4.832,2.155,4.832,4.833v14.223c0,2.678-2.156,4.834-4.832,4.834H11.246
	c-2.678,0-4.833-2.156-4.833-4.834V10.844C6.413,8.166,8.568,6.011,11.246,6.011z M38.284,86.255h8.105V53.422h-8.105V86.255z
	 M79.833,15.574v4.015h2.309v16.529c-0.011,0.051-0.056,0.277-0.181,0.509c-0.139,0.256,0.012,0.195-0.147,0.195H43.64
	c-1.334,0-2.366,1.002-2.73,1.679c-0.365,0.678-0.428,1.298-0.428,1.298c-0.014,0.092-0.02,0.184-0.021,0.275v10.641h4.016v-9.878
	h37.336c1.831,0,3.147-1.311,3.681-2.296c0.534-0.984,0.643-1.92,0.643-1.92c0.014-0.094,0.02-0.188,0.02-0.281V19.254
	c0.002-0.127-0.01-0.256-0.032-0.381c0,0-0.109-0.633-0.455-1.338c-0.173-0.354-0.411-0.76-0.851-1.165
	c-0.438-0.405-1.17-0.796-1.98-0.796H79.833z"/>
</svg>
