<?xml version="1.0" encoding="utf-8"?>
<!-- Generator: Adobe Illustrator 16.0.1, SVG Export Plug-In . SVG Version: 6.00 Build 0)  -->
<!DOCTYPE svg PUBLIC "-//W3C//DTD SVG 1.1//EN" "http://www.w3.org/Graphics/SVG/1.1/DTD/svg11.dtd">
<svg version="1.1" id="Layer_1" xmlns="http://www.w3.org/2000/svg" xmlns:xlink="http://www.w3.org/1999/xlink" x="0px" y="0px"
	 width="92px" height="92px" viewBox="0 0 92 92" enable-background="new 0 0 92 92" xml:space="preserve">
<rect fill="none" width="92" height="92"/>
<path fill="#FFFFFF" d="M72.759,42.803c-1.021-1.021-2.431-1.653-3.989-1.653c-3.117,0-5.643,2.526-5.643,5.642v-5.453
	c0-1.559-0.632-2.969-1.652-3.99c-1.021-1.021-2.432-1.652-3.99-1.652c-3.117,0-5.643,2.525-5.643,5.643v-5.154
	c0-1.558-0.631-2.968-1.652-3.989c-1.021-1.021-2.432-1.652-3.99-1.652c-3.111,0-5.634,2.519-5.643,5.628V13.289
	c0-3.116-2.525-5.643-5.642-5.643c-3.116,0-5.642,2.526-5.642,5.643V62.09l-9.134-10.375c-1.115-1.268-2.672-1.914-4.237-1.914
	c-1.324,0-2.654,0.464-3.726,1.408c-2.339,2.059-2.565,5.623-0.506,7.963l18.275,20.759c0.454,0.876,1.117,1.627,1.923,2.185
	c0.972,0.674,2.152,1.068,3.423,1.068h12.551h20.551c3.324,0,6.019-2.694,6.019-6.019V46.791
	C74.411,45.233,73.779,43.823,72.759,42.803z"/>
</svg>
