<?xml version="1.0" encoding="utf-8"?>
<!-- Generator: Adobe Illustrator 16.0.1, SVG Export Plug-In . SVG Version: 6.00 Build 0)  -->
<!DOCTYPE svg PUBLIC "-//W3C//DTD SVG 1.1//EN" "http://www.w3.org/Graphics/SVG/1.1/DTD/svg11.dtd">
<svg version="1.1" id="Layer_1" xmlns="http://www.w3.org/2000/svg" xmlns:xlink="http://www.w3.org/1999/xlink" x="0px" y="0px"
	 width="92px" height="92px" viewBox="0 0 92 92" enable-background="new 0 0 92 92" xml:space="preserve">
<rect x="347" y="218" fill="none" width="92" height="92"/>
<path fill="none" d="M395.684,222.196c-15.699,0-28.587,12.005-29.998,27.336l-6.467,12.475c-0.617,1.192-0.276,2.661,0.803,3.46
	l5.529,4.088v13.061c0,1.289,1.045,2.334,2.333,2.334h13.173v17.792c0,1.118,1.129,1.881,2.166,1.464l26.137-10.506
	c1.305-0.524,2.166-1.797,2.166-3.204V277.96c8.576-5.311,14.291-14.803,14.291-25.632
	C425.816,235.688,412.326,222.196,395.684,222.196z M412.915,257.062c-0.962,1.355-2.198,2.591-3.72,3.748
	c-4.104,2.009-6.803-2.727-6.803-2.727l3.666,9.564c0.102,0.265,0.09,0.565-0.029,0.821c-0.12,0.255-0.338,0.441-0.596,0.51
	l-0.627,0.168c-0.7,0.188-1.43-0.154-1.783-0.83l-4.077-7.843c-2.359-0.757-3.534-2.66-3.97-5.021
	c-0.008-0.042-0.016-0.081-0.023-0.122c-0.014,0.041-0.033,0.08-0.049,0.122c-1.191,3.137-6.995,3.099-8.863,0
	c-0.438-0.725-0.66-1.615-0.558-2.669c-0.022,0-0.048-0.013-0.066,0c-6.243,4.111-12.177-4.749-6.977-12.545
	c3.505-5.255,10.248-8.932,17.626-8.932c10.693,0,19.361,7.747,19.361,17.305C415.428,251.965,414.592,254.699,412.915,257.062z"/>
<rect x="347" y="218" fill="none" width="92" height="92"/>
<path fill="none" d="M395.684,222.196c-15.699,0-28.587,12.005-29.998,27.336l-6.467,12.475c-0.617,1.192-0.276,2.661,0.803,3.46
	l5.529,4.088v13.061c0,1.289,1.045,2.334,2.333,2.334h13.173v17.792c0,1.118,1.129,1.881,2.166,1.464l26.137-10.506
	c1.305-0.524,2.166-1.797,2.166-3.204V277.96c8.576-5.311,14.291-14.803,14.291-25.632
	C425.816,235.688,412.326,222.196,395.684,222.196z M412.915,257.062c-0.962,1.355-2.198,2.591-3.72,3.748
	c-4.104,2.009-6.803-2.727-6.803-2.727l3.666,9.564c0.102,0.265,0.09,0.565-0.029,0.821c-0.12,0.255-0.338,0.441-0.596,0.51
	l-0.627,0.168c-0.7,0.188-1.43-0.154-1.783-0.83l-4.077-7.843c-2.359-0.757-3.534-2.66-3.97-5.021
	c-0.008-0.042-0.016-0.081-0.023-0.122c-0.014,0.041-0.033,0.08-0.049,0.122c-1.191,3.137-6.995,3.099-8.863,0
	c-0.438-0.725-0.66-1.615-0.558-2.669c-0.022,0-0.048-0.013-0.066,0c-6.243,4.111-12.177-4.749-6.977-12.545
	c3.505-5.255,10.248-8.932,17.626-8.932c10.693,0,19.361,7.747,19.361,17.305C415.428,251.965,414.592,254.699,412.915,257.062z"/>
<rect fill="none" width="92" height="92"/>
<path fill-rule="evenodd" clip-rule="evenodd" fill="#FFFFFF" d="M386.854,430.224h10.846c0.451,0,0.82,0.371,0.82,0.819v0.937
	c0,6.097-12.486,6.097-12.486,0v-0.937C386.033,430.592,386.402,430.224,386.854,430.224L386.854,430.224z M384.059,424.348h16.644
	c0.996,0,1.812,0.816,1.812,1.811l0,0c0,0.995-0.816,1.814-1.812,1.814h-16.644c-0.995,0-1.811-0.817-1.811-1.814l0,0
	C382.248,425.163,383.062,424.348,384.059,424.348L384.059,424.348z M392.38,355.162c13.848,0,25.076,11.23,25.076,25.076
	c0,17.404-14.736,16.634-14.736,33.219c0,1.162-0.953,2.115-2.116,2.115h-16.445c-1.164,0-2.116-0.953-2.116-2.115
	c0-16.585-14.737-15.814-14.737-33.219C367.305,366.393,378.533,355.162,392.38,355.162L392.38,355.162z M384.059,418.445h16.644
	c0.996,0,1.812,0.816,1.812,1.812l0,0c0,0.997-0.816,1.812-1.812,1.812h-16.644c-0.995,0-1.811-0.814-1.811-1.812l0,0
	C382.248,419.262,383.062,418.445,384.059,418.445z M377.185,379.747c0-7.839,6.378-14.217,14.216-14.217
	c0.821,0,1.486-0.665,1.486-1.486s-0.665-1.486-1.486-1.486c-9.478,0-17.188,7.711-17.188,17.189c0,0.821,0.665,1.486,1.486,1.486
	S377.185,380.568,377.185,379.747z"/>
<path fill-rule="evenodd" clip-rule="evenodd" fill="#FFFFFF" d="M40.854,80.224h10.846c0.451,0,0.82,0.371,0.82,0.819v0.937
	c0,6.097-12.486,6.097-12.486,0v-0.937C40.033,80.592,40.402,80.224,40.854,80.224L40.854,80.224z M38.059,74.348h16.644
	c0.996,0,1.812,0.816,1.812,1.811l0,0c0,0.995-0.816,1.814-1.812,1.814H38.059c-0.995,0-1.811-0.817-1.811-1.814l0,0
	C36.248,75.163,37.062,74.348,38.059,74.348L38.059,74.348z M46.38,5.162c13.848,0,25.076,11.23,25.076,25.076
	c0,17.404-14.736,16.634-14.736,33.219c0,1.162-0.953,2.115-2.116,2.115H38.158c-1.164,0-2.116-0.953-2.116-2.115
	c0-16.585-14.737-15.814-14.737-33.219C21.305,16.393,32.533,5.162,46.38,5.162L46.38,5.162z M38.059,68.445h16.644
	c0.996,0,1.812,0.816,1.812,1.812l0,0c0,0.997-0.816,1.812-1.812,1.812H38.059c-0.995,0-1.811-0.814-1.811-1.812l0,0
	C36.248,69.262,37.062,68.445,38.059,68.445z M31.185,29.747c0-7.839,6.377-14.217,14.216-14.217c0.821,0,1.486-0.665,1.486-1.486
	s-0.665-1.486-1.486-1.486c-9.478,0-17.188,7.711-17.188,17.189c0,0.821,0.666,1.486,1.486,1.486S31.185,30.568,31.185,29.747z"/>
</svg>
