<?xml version="1.0" encoding="utf-8"?>
<!-- Generator: Adobe Illustrator 16.0.1, SVG Export Plug-In . SVG Version: 6.00 Build 0)  -->
<!DOCTYPE svg PUBLIC "-//W3C//DTD SVG 1.1//EN" "http://www.w3.org/Graphics/SVG/1.1/DTD/svg11.dtd">
<svg version="1.1" id="Layer_1" xmlns="http://www.w3.org/2000/svg" xmlns:xlink="http://www.w3.org/1999/xlink" x="0px" y="0px"
	 width="92px" height="92px" viewBox="0 0 92 92" enable-background="new 0 0 92 92" xml:space="preserve">
<rect x="347" y="218" fill="none" width="92" height="92"/>
<path fill="none" d="M395.684,222.196c-15.699,0-28.587,12.005-29.998,27.336l-6.467,12.475c-0.617,1.192-0.276,2.661,0.803,3.46
	l5.529,4.088v13.061c0,1.289,1.045,2.334,2.333,2.334h13.173v17.792c0,1.118,1.129,1.881,2.166,1.464l26.137-10.506
	c1.305-0.524,2.166-1.797,2.166-3.204V277.96c8.576-5.311,14.291-14.803,14.291-25.632
	C425.816,235.688,412.326,222.196,395.684,222.196z M412.915,257.062c-0.962,1.355-2.198,2.591-3.72,3.748
	c-4.104,2.009-6.803-2.727-6.803-2.727l3.666,9.564c0.102,0.265,0.09,0.565-0.029,0.821c-0.12,0.255-0.338,0.441-0.596,0.51
	l-0.627,0.168c-0.7,0.188-1.43-0.154-1.783-0.83l-4.077-7.843c-2.359-0.757-3.534-2.66-3.97-5.021
	c-0.008-0.042-0.016-0.081-0.023-0.122c-0.014,0.041-0.033,0.08-0.049,0.122c-1.191,3.137-6.995,3.099-8.863,0
	c-0.438-0.725-0.66-1.615-0.558-2.669c-0.022,0-0.048-0.013-0.066,0c-6.243,4.111-12.177-4.749-6.977-12.545
	c3.505-5.255,10.248-8.932,17.626-8.932c10.693,0,19.361,7.747,19.361,17.305C415.428,251.965,414.592,254.699,412.915,257.062z"/>
<rect x="347" y="218" fill="none" width="92" height="92"/>
<path fill="none" d="M395.684,222.196c-15.699,0-28.587,12.005-29.998,27.336l-6.467,12.475c-0.617,1.192-0.276,2.661,0.803,3.46
	l5.529,4.088v13.061c0,1.289,1.045,2.334,2.333,2.334h13.173v17.792c0,1.118,1.129,1.881,2.166,1.464l26.137-10.506
	c1.305-0.524,2.166-1.797,2.166-3.204V277.96c8.576-5.311,14.291-14.803,14.291-25.632
	C425.816,235.688,412.326,222.196,395.684,222.196z M412.915,257.062c-0.962,1.355-2.198,2.591-3.72,3.748
	c-4.104,2.009-6.803-2.727-6.803-2.727l3.666,9.564c0.102,0.265,0.09,0.565-0.029,0.821c-0.12,0.255-0.338,0.441-0.596,0.51
	l-0.627,0.168c-0.7,0.188-1.43-0.154-1.783-0.83l-4.077-7.843c-2.359-0.757-3.534-2.66-3.97-5.021
	c-0.008-0.042-0.016-0.081-0.023-0.122c-0.014,0.041-0.033,0.08-0.049,0.122c-1.191,3.137-6.995,3.099-8.863,0
	c-0.438-0.725-0.66-1.615-0.558-2.669c-0.022,0-0.048-0.013-0.066,0c-6.243,4.111-12.177-4.749-6.977-12.545
	c3.505-5.255,10.248-8.932,17.626-8.932c10.693,0,19.361,7.747,19.361,17.305C415.428,251.965,414.592,254.699,412.915,257.062z"/>
<rect fill="none" width="92" height="92"/>
<path fill-rule="evenodd" clip-rule="evenodd" fill="#FFFFFF" d="M386.854,430.224h10.846c0.451,0,0.82,0.371,0.82,0.819v0.937
	c0,6.097-12.486,6.097-12.486,0v-0.937C386.033,430.592,386.402,430.224,386.854,430.224L386.854,430.224z M384.059,424.348h16.644
	c0.996,0,1.812,0.816,1.812,1.811l0,0c0,0.995-0.816,1.814-1.812,1.814h-16.644c-0.995,0-1.811-0.817-1.811-1.814l0,0
	C382.248,425.163,383.062,424.348,384.059,424.348L384.059,424.348z M392.38,355.162c13.848,0,25.076,11.23,25.076,25.076
	c0,17.404-14.736,16.634-14.736,33.219c0,1.162-0.953,2.115-2.116,2.115h-16.445c-1.164,0-2.116-0.953-2.116-2.115
	c0-16.585-14.737-15.814-14.737-33.219C367.305,366.393,378.533,355.162,392.38,355.162L392.38,355.162z M384.059,418.445h16.644
	c0.996,0,1.812,0.816,1.812,1.812l0,0c0,0.997-0.816,1.812-1.812,1.812h-16.644c-0.995,0-1.811-0.814-1.811-1.812l0,0
	C382.248,419.262,383.062,418.445,384.059,418.445z M377.185,379.747c0-7.839,6.378-14.217,14.216-14.217
	c0.821,0,1.486-0.665,1.486-1.486s-0.665-1.486-1.486-1.486c-9.478,0-17.188,7.711-17.188,17.189c0,0.821,0.665,1.486,1.486,1.486
	S377.185,380.568,377.185,379.747z"/>
<path fill="#F5F5F5" d="M48.069,75.814V17.193L31.162,34.102H15.853c-2.817,0-5.118,2.301-5.118,5.113v14.578
	c0,2.812,2.3,5.112,5.118,5.112h15.309L48.069,75.814L48.069,75.814z M58.521,58.06c-0.056,0.03-0.117,0.058-0.179,0.082
	c3.585-1.414,6.264-4.125,7.712-7.382c1.467-3.297,1.678-7.156,0.281-10.791l-0.006-0.002c-0.598-1.563-1.432-2.947-2.443-4.127
	c-1.07-1.248-2.328-2.279-3.703-3.066c-1.611-0.924-3.668-0.363-4.588,1.248c-0.92,1.61-0.361,3.664,1.248,4.587
	c0.737,0.419,1.396,0.959,1.938,1.594c0.548,0.634,0.987,1.362,1.294,2.157l0,0c0.736,1.909,0.623,3.935-0.148,5.666
	c-0.767,1.737-2.199,3.18-4.102,3.908l-0.302,0.135l0,0c-1.652,0.825-2.326,2.84-1.498,4.492c0.798,1.598,2.7,2.276,4.316,1.581
	l-0.123,0.048L58.521,58.06z M57.987,41.71L57.987,41.71 M64.644,67.463c-1.729,0.659-3.667-0.203-4.327-1.932
	c-0.66-1.728,0.205-3.664,1.934-4.325c4.086-1.569,7.078-4.312,8.949-7.587c1.336-2.326,2.103-4.924,2.297-7.561
	c0.199-2.676-0.174-5.376-1.136-7.865c-1.354-3.532-3.901-6.699-7.667-8.857c-1.615-0.921-2.173-2.975-1.248-4.586
	c0.922-1.611,2.972-2.172,4.584-1.249c5.175,2.963,8.693,7.366,10.591,12.298c1.325,3.448,1.847,7.131,1.581,10.733
	c-0.266,3.64-1.33,7.221-3.166,10.429C74.442,61.494,70.299,65.289,64.644,67.463z"/>
</svg>
